<svg width="34" height="34" viewBox="0 0 34 34" fill="none" xmlns="http://www.w3.org/2000/svg">
<path d="M32 14C31.9445 12.0335 31.7583 10.7795 31.1278 9.71C30.2301 8.1875 28.6148 7.34 25.3857 5.648L22.3833 4.073C19.7472 2.6915 18.4291 2 17.012 2C15.5949 2 14.2768 2.69 11.6407 4.073L8.63831 5.648C5.40923 7.34 3.79394 8.1875 2.89622 9.71C2 11.231 2 13.1255 2 16.91V17.0855C2 20.873 2 22.7675 2.89622 24.2885C3.79394 25.811 5.40923 26.6585 8.63831 28.352L11.6407 29.9255C14.2768 31.3085 15.5949 32 17.012 32C18.4291 32 19.7472 31.31 22.3833 29.927L25.3857 28.352C28.6148 26.6585 30.2301 25.8125 31.1278 24.29C31.7583 23.2205 31.9445 21.9665 32 20M30.5228 10.25L24.518 13.25M24.518 13.25L23.7674 13.625L17.012 17M24.518 13.25V18.5M24.518 13.25L10.2566 5.75M17.012 17L3.5012 10.25M17.012 17V31.25" stroke="#2C3A76" stroke-width="3" stroke-linecap="round"/>
</svg>
