<svg width="32" height="30" viewBox="0 0 32 30" fill="none" xmlns="http://www.w3.org/2000/svg">
<path d="M28.798 8.40151H23.5364C23.5949 8.35201 23.6548 8.30401 23.7118 8.25152C24.1674 7.84681 24.5345 7.35247 24.7903 6.7994C25.046 6.24633 25.1849 5.64644 25.1982 5.03724C25.2179 4.3708 25.1012 3.70736 24.8553 3.08766C24.6093 2.46796 24.2392 1.90506 23.7679 1.43354C23.2965 0.96202 22.7337 0.591817 22.1141 0.345661C21.4944 0.0995045 20.831 -0.0174102 20.1646 0.00209407C19.5551 0.0152209 18.955 0.154011 18.4016 0.409776C17.8483 0.665541 17.3537 1.03278 16.9488 1.48849C16.3886 2.13779 15.9331 2.87056 15.5989 3.66034C15.2647 2.87056 14.8092 2.13779 14.249 1.48849C13.8441 1.03278 13.3495 0.665541 12.7962 0.409776C12.2429 0.154011 11.6427 0.0152209 11.0332 0.00209407C10.3668 -0.0174102 9.70338 0.0995045 9.08375 0.345661C8.46412 0.591817 7.90134 0.96202 7.42996 1.43354C6.95857 1.90506 6.58854 2.46796 6.34257 3.08766C6.09659 3.70736 5.97988 4.3708 5.99958 5.03724C6.01291 5.64644 6.1518 6.24633 6.40756 6.7994C6.66332 7.35247 7.03045 7.84681 7.48598 8.25152C7.54297 8.30101 7.60297 8.34901 7.66147 8.40151H2.39983C1.76336 8.40151 1.15295 8.65435 0.702895 9.1044C0.252839 9.55446 0 10.1649 0 10.8013V15.601C0 16.2375 0.252839 16.8479 0.702895 17.2979C1.15295 17.748 1.76336 18.0008 2.39983 18.0008V27.6002C2.39983 28.2366 2.65267 28.847 3.10273 29.2971C3.55278 29.7472 4.16319 30 4.79966 30H26.3982C27.0346 30 27.645 29.7472 28.0951 29.2971C28.5452 28.847 28.798 28.2366 28.798 27.6002V18.0008C29.4345 18.0008 30.0449 17.748 30.4949 17.2979C30.945 16.8479 31.1978 16.2375 31.1978 15.601V10.8013C31.1978 10.1649 30.945 9.55446 30.4949 9.1044C30.0449 8.65435 29.4345 8.40151 28.798 8.40151ZM18.7487 3.07838C18.9387 2.86857 19.17 2.70031 19.4281 2.58416C19.6862 2.46801 19.9656 2.40648 20.2486 2.40343H20.3221C20.6538 2.4055 20.9818 2.47376 21.2868 2.60422C21.5918 2.73467 21.8677 2.9247 22.0983 3.16315C22.329 3.4016 22.5097 3.68368 22.6299 3.99287C22.7501 4.30206 22.8074 4.63213 22.7984 4.96375C22.7954 5.24678 22.7338 5.52611 22.6177 5.78423C22.5015 6.04234 22.3333 6.27365 22.1235 6.46364C20.7001 7.72356 18.3377 8.16752 16.8738 8.32351C17.0538 6.73512 17.5488 4.42678 18.7487 3.07838ZM9.13586 3.13238C9.60075 2.66754 10.2303 2.40503 10.8877 2.40193H10.9612C11.2443 2.40498 11.5236 2.46651 11.7817 2.58266C12.0398 2.69881 12.2711 2.86707 12.4611 3.07688C13.7195 4.49878 14.1635 6.85662 14.3195 8.31451C12.8616 8.16452 10.5038 7.71456 9.08187 6.45614C8.87206 6.26615 8.7038 6.03484 8.58765 5.77673C8.4715 5.51862 8.40997 5.23928 8.40691 4.95625C8.39761 4.61912 8.4569 4.28362 8.58117 3.9701C8.70544 3.65658 8.89212 3.37157 9.12986 3.13238H9.13586ZM2.39983 10.8013H14.399V15.601H2.39983V10.8013ZM4.79966 18.0008H14.399V27.6002H4.79966V18.0008ZM26.3982 27.6002H16.7988V18.0008H26.3982V27.6002ZM28.798 15.601H16.7988V10.8013H28.798V15.601Z" fill="#2C3A76"/>
</svg>
