<svg width="24" height="30" viewBox="0 0 24 30" fill="none" xmlns="http://www.w3.org/2000/svg">
<path fill-rule="evenodd" clip-rule="evenodd" d="M0 3C0 2.20435 0.31607 1.44129 0.878679 0.87868C1.44129 0.31607 2.20435 0 3 0H21C21.7956 0 22.5587 0.31607 23.1213 0.87868C23.6839 1.44129 24 2.20435 24 3V27C24 27.7956 23.6839 28.5587 23.1213 29.1213C22.5587 29.6839 21.7956 30 21 30H3C2.20435 30 1.44129 29.6839 0.878679 29.1213C0.31607 28.5587 0 27.7956 0 27V3ZM21 3H3V27H21V3ZM11.322 7.1445C11.6032 7.42579 11.7612 7.80725 11.7612 8.205C11.7612 8.60275 11.6032 8.98421 11.322 9.2655L8.4045 12.18C8.05291 12.5313 7.57625 12.7286 7.07925 12.7286C6.58225 12.7286 6.10558 12.5313 5.754 12.18L4.428 10.854C4.28473 10.7156 4.17046 10.5501 4.09185 10.3671C4.01323 10.1841 3.97185 9.98727 3.97012 9.7881C3.96839 9.58893 4.00635 9.39141 4.08177 9.20707C4.15719 9.02273 4.26857 8.85525 4.40941 8.71441C4.55025 8.57357 4.71772 8.46219 4.90207 8.38677C5.08641 8.31135 5.28393 8.27339 5.4831 8.27512C5.68227 8.27685 5.8791 8.31823 6.06211 8.39685C6.24511 8.47546 6.41063 8.58974 6.549 8.733L7.08 9.264L9.201 7.143C9.48229 6.86179 9.86375 6.70382 10.2615 6.70382C10.6592 6.70382 11.0407 6.86329 11.322 7.1445ZM13.5 10.5C13.5 10.1022 13.658 9.72064 13.9393 9.43934C14.2206 9.15804 14.6022 9 15 9H18C18.3978 9 18.7794 9.15804 19.0607 9.43934C19.342 9.72064 19.5 10.1022 19.5 10.5C19.5 10.8978 19.342 11.2794 19.0607 11.5607C18.7794 11.842 18.3978 12 18 12H15C14.6022 12 14.2206 11.842 13.9393 11.5607C13.658 11.2794 13.5 10.8978 13.5 10.5ZM4.5 17.25C4.5 16.6533 4.73705 16.081 5.15901 15.659C5.58097 15.2371 6.15326 15 6.75 15H9.75C10.3467 15 10.919 15.2371 11.341 15.659C11.7629 16.081 12 16.6533 12 17.25V20.25C12 20.8467 11.7629 21.419 11.341 21.841C10.919 22.2629 10.3467 22.5 9.75 22.5H6.75C6.15326 22.5 5.58097 22.2629 5.15901 21.841C4.73705 21.419 4.5 20.8467 4.5 20.25V17.25ZM7.5 18V19.5H9V18H7.5ZM13.5 18.75C13.5 18.3522 13.658 17.9706 13.9393 17.6893C14.2206 17.408 14.6022 17.25 15 17.25H18C18.3978 17.25 18.7794 17.408 19.0607 17.6893C19.342 17.9706 19.5 18.3522 19.5 18.75C19.5 19.1478 19.342 19.5294 19.0607 19.8107C18.7794 20.092 18.3978 20.25 18 20.25H15C14.6022 20.25 14.2206 20.092 13.9393 19.8107C13.658 19.5294 13.5 19.1478 13.5 18.75Z" fill="#2C3A76"/>
</svg>
