<svg width="34" height="30" viewBox="0 0 34 30" fill="none" xmlns="http://www.w3.org/2000/svg">
<path d="M2.98992 2.98995C4.81142 1.16813 7.25449 0.102547 9.82893 0.00702438C12.4034 -0.0884979 14.9187 0.793104 16.8702 2.47493C18.82 0.795907 21.332 -0.0847043 23.9033 0.00939743C26.4747 0.103499 28.9156 1.16537 30.7374 2.98242C32.5592 4.79947 33.6275 7.2376 33.7283 9.80869C33.8291 12.3798 32.9551 14.8941 31.2812 16.8482L19.0888 29.0798C18.5287 29.6402 17.7774 29.9681 16.9856 29.9978C16.1939 30.0275 15.4201 29.7568 14.8196 29.24L14.6468 29.0814L2.45607 16.8482C0.783035 14.8958 -0.0914051 12.3838 0.00757098 9.81449C0.106547 7.24518 1.17165 4.80791 2.98992 2.98995ZM5.21014 5.21016C3.92612 6.49454 3.18596 8.22401 3.14328 10.0396C3.10059 11.8553 3.75865 13.6176 4.98089 14.9609L5.21014 15.2027L16.8686 26.8612L25.1952 18.5315L19.6447 12.9825L17.9803 14.6469C17.097 15.5305 15.8989 16.0271 14.6495 16.0274C13.4001 16.0277 12.2018 15.5317 11.3181 14.6484C10.4344 13.7652 9.9378 12.5671 9.93751 11.3176C9.93721 10.0682 10.4333 8.86989 11.3165 7.98622L14.617 4.68416C13.3035 3.63587 11.6595 3.08995 9.97981 3.14434C8.30017 3.19872 6.69487 3.84986 5.45194 4.98092L5.21014 5.21016ZM18.5346 9.65059C18.829 9.35623 19.2283 9.19087 19.6447 9.19087C20.061 9.19087 20.4603 9.35623 20.7548 9.65059L27.4154 16.3112L28.5271 15.2027C29.8326 13.8981 30.5759 12.1345 30.5979 10.289C30.6199 8.44346 29.9189 6.66259 28.6449 5.32723C27.3709 3.99186 25.6249 3.208 23.7804 3.14328C21.9359 3.07856 20.1393 3.73813 18.7748 4.98092L18.5346 5.21016L13.5383 10.2064C13.2661 10.4784 13.1033 10.8408 13.0807 11.2249C13.0582 11.609 13.1774 11.9881 13.4158 12.29L13.5383 12.4266C13.8103 12.6988 14.1727 12.8616 14.5568 12.8842C14.9409 12.9068 15.3199 12.7875 15.6219 12.5491L15.7585 12.4266L18.5346 9.65059Z" fill="#2C3A76"/>
</svg>
